<svg xmlns="http://www.w3.org/2000/svg" width="48" height="49" viewBox="0 0 48 49" fill="none">
  <g clip-path="url(#clip0_109_326)">
    <path d="M24 48.2828C37.2548 48.2828 48 37.5377 48 24.2828C48 11.028 37.2548 0.282837 24 0.282837C10.7452 0.282837 0 11.028 0 24.2828C0 37.5377 10.7452 48.2828 24 48.2828Z" fill="#50B748"/>
    <path d="M29.05 47.7168C29.5102 47.6275 29.9678 47.5248 30.422 47.4088C31.1922 47.1935 31.9511 46.9398 32.696 46.6488C33.4418 46.3601 34.1727 46.0344 34.886 45.6728C35.5995 45.3098 36.2943 44.9113 36.968 44.4788C37.6408 44.0462 38.2917 43.5803 38.918 43.0828C39.5454 42.5846 40.1475 42.0552 40.722 41.4968C41.2955 40.9397 41.8409 40.3543 42.356 39.7428C42.8715 39.1307 43.3561 38.4933 43.808 37.8328C44.2597 37.1734 44.6782 36.4919 45.062 35.7908C45.4458 35.0886 45.7942 34.3677 46.106 33.6308C46.4181 32.8937 46.6931 32.1414 46.93 31.3768C47.1328 30.7074 47.3063 30.0294 47.45 29.3448L33.19 15.0868C31.9857 13.8772 30.5541 12.9177 28.9776 12.2635C27.4011 11.6093 25.7108 11.2733 24.004 11.2748C22.2956 11.2729 20.6037 11.6087 19.0255 12.2629C17.4473 12.9171 16.014 13.8768 14.808 15.0868C13.5989 16.2932 12.6397 17.7263 11.9852 19.3039C11.3307 20.8815 10.9938 22.5728 10.9938 24.2808C10.9938 25.9888 11.3307 27.68 11.9852 29.2577C12.6397 30.8353 13.5989 32.2684 14.808 33.4748L29.05 47.7168Z" fill="#10A711"/>
    <path d="M24.002 11.2767C27.326 11.2767 30.65 12.5467 33.194 15.0887C34.4031 16.2952 35.3623 17.7282 36.0168 19.3058C36.6713 20.8835 37.0082 22.5747 37.0082 24.2827C37.0082 25.9908 36.6713 27.682 36.0168 29.2596C35.3623 30.8373 34.4031 32.2703 33.194 33.4767C31.9876 34.6858 30.5546 35.6451 28.9769 36.2996C27.3993 36.9541 25.708 37.2909 24 37.2909C22.292 37.2909 20.6008 36.9541 19.0231 36.2996C17.4455 35.6451 16.0124 34.6858 14.806 33.4767C13.597 32.2703 12.6377 30.8373 11.9832 29.2596C11.3287 27.682 10.9918 25.9908 10.9918 24.2827C10.9918 22.5747 11.3287 20.8835 11.9832 19.3058C12.6377 17.7282 13.597 16.2952 14.806 15.0887C16.0121 13.8788 17.4454 12.9191 19.0236 12.2649C20.6017 11.6107 22.2936 11.2749 24.002 11.2767ZM29.922 20.2807C29.7327 20.2989 29.5524 20.3703 29.402 20.4867L22.094 25.9667L18.708 22.5827C17.974 21.8187 16.528 23.2627 17.294 23.9967L21.294 27.9967C21.4674 28.1607 21.6922 28.2597 21.9303 28.2768C22.1683 28.2939 22.4049 28.2282 22.6 28.0907L30.6 22.0907C31.272 21.6007 30.858 20.2947 30.026 20.2827C29.992 20.281 29.958 20.281 29.924 20.2827L29.922 20.2807Z" fill="white"/>
  </g>
  <defs>
    <clipPath id="clip0_109_326">
      <rect width="48" height="48" fill="white" transform="translate(0 0.282837)"/>
    </clipPath>
  </defs>
</svg>